<mxfile host="drawio-plugin" agent="Mozilla/5.0 (Windows NT 10.0; Win64; x64) AppleWebKit/537.36 (KHTML, like Gecko) Chrome/122.0.0.0 Safari/537.36" modified="2025-01-04T11:21:53.572Z" etag="HPxvFUfMxF1-vWwtE2Fe" version="22.1.22" type="embed">
  <diagram name="페이지-1" id="CHRf9KIFldmfQ6KkUF35">
    <mxGraphModel dx="1264" dy="940" grid="1" gridSize="10" guides="1" tooltips="1" connect="1" arrows="1" fold="1" page="1" pageScale="1" pageWidth="827" pageHeight="1169" math="0" shadow="0">
      <root>
        <mxCell id="0" />
        <mxCell id="1" parent="0" />
        <mxCell id="qqJ8E_7XKEZBkvZXlv93-1" value="Client" style="rounded=1;whiteSpace=wrap;html=1;" parent="1" vertex="1">
          <mxGeometry x="200" y="370" width="120" height="60" as="geometry" />
        </mxCell>
        <mxCell id="qqJ8E_7XKEZBkvZXlv93-25" style="edgeStyle=orthogonalEdgeStyle;rounded=0;orthogonalLoop=1;jettySize=auto;html=1;entryX=1;entryY=0.5;entryDx=0;entryDy=0;" parent="1" source="qqJ8E_7XKEZBkvZXlv93-4" target="qqJ8E_7XKEZBkvZXlv93-1" edge="1">
          <mxGeometry relative="1" as="geometry" />
        </mxCell>
        <mxCell id="W4ulsms2s_xt8nWufjkG-86" style="edgeStyle=orthogonalEdgeStyle;rounded=0;orthogonalLoop=1;jettySize=auto;html=1;entryX=0;entryY=0.5;entryDx=0;entryDy=0;" parent="1" source="qqJ8E_7XKEZBkvZXlv93-4" target="qqJ8E_7XKEZBkvZXlv93-20" edge="1">
          <mxGeometry relative="1" as="geometry">
            <Array as="points">
              <mxPoint x="420" y="690" />
            </Array>
          </mxGeometry>
        </mxCell>
        <mxCell id="W4ulsms2s_xt8nWufjkG-87" style="edgeStyle=orthogonalEdgeStyle;rounded=0;orthogonalLoop=1;jettySize=auto;html=1;entryX=1;entryY=0.5;entryDx=0;entryDy=0;" parent="1" source="qqJ8E_7XKEZBkvZXlv93-4" target="zrGRH9ktJyJOCsm0qiEf-3" edge="1">
          <mxGeometry relative="1" as="geometry">
            <Array as="points">
              <mxPoint x="390" y="820" />
            </Array>
          </mxGeometry>
        </mxCell>
        <mxCell id="21" style="edgeStyle=orthogonalEdgeStyle;rounded=0;orthogonalLoop=1;jettySize=auto;html=1;entryX=0;entryY=0.5;entryDx=0;entryDy=0;" edge="1" parent="1" source="qqJ8E_7XKEZBkvZXlv93-4" target="W4ulsms2s_xt8nWufjkG-3">
          <mxGeometry relative="1" as="geometry" />
        </mxCell>
        <mxCell id="qqJ8E_7XKEZBkvZXlv93-4" value="Api Gateway" style="rounded=1;whiteSpace=wrap;html=1;" parent="1" vertex="1">
          <mxGeometry x="360" y="370" width="120" height="60" as="geometry" />
        </mxCell>
        <mxCell id="W4ulsms2s_xt8nWufjkG-84" style="edgeStyle=orthogonalEdgeStyle;rounded=0;orthogonalLoop=1;jettySize=auto;html=1;" parent="1" source="qqJ8E_7XKEZBkvZXlv93-12" target="qqJ8E_7XKEZBkvZXlv93-20" edge="1">
          <mxGeometry relative="1" as="geometry">
            <Array as="points">
              <mxPoint x="560" y="860" />
            </Array>
          </mxGeometry>
        </mxCell>
        <mxCell id="27" style="edgeStyle=orthogonalEdgeStyle;rounded=0;orthogonalLoop=1;jettySize=auto;html=1;entryX=1;entryY=0.5;entryDx=0;entryDy=0;" edge="1" parent="1" source="qqJ8E_7XKEZBkvZXlv93-12" target="24">
          <mxGeometry relative="1" as="geometry">
            <Array as="points">
              <mxPoint x="1100" y="700" />
              <mxPoint x="1100" y="500" />
            </Array>
          </mxGeometry>
        </mxCell>
        <mxCell id="qqJ8E_7XKEZBkvZXlv93-12" value="DB" style="shape=cylinder3;whiteSpace=wrap;html=1;boundedLbl=1;backgroundOutline=1;size=15;" parent="1" vertex="1">
          <mxGeometry x="1170" y="660" width="60" height="80" as="geometry" />
        </mxCell>
        <mxCell id="18" style="edgeStyle=orthogonalEdgeStyle;rounded=0;orthogonalLoop=1;jettySize=auto;html=1;entryX=0.5;entryY=0;entryDx=0;entryDy=0;" parent="1" source="qqJ8E_7XKEZBkvZXlv93-15" target="qqJ8E_7XKEZBkvZXlv93-38" edge="1">
          <mxGeometry relative="1" as="geometry">
            <Array as="points">
              <mxPoint x="780" y="650" />
              <mxPoint x="870" y="650" />
            </Array>
          </mxGeometry>
        </mxCell>
        <mxCell id="qqJ8E_7XKEZBkvZXlv93-15" value="User Event&lt;br&gt;Monitor Service" style="rounded=1;whiteSpace=wrap;html=1;" parent="1" vertex="1">
          <mxGeometry x="720" y="570" width="120" height="60" as="geometry" />
        </mxCell>
        <mxCell id="W4ulsms2s_xt8nWufjkG-70" style="edgeStyle=orthogonalEdgeStyle;rounded=0;orthogonalLoop=1;jettySize=auto;html=1;" parent="1" source="qqJ8E_7XKEZBkvZXlv93-17" target="qqJ8E_7XKEZBkvZXlv93-4" edge="1">
          <mxGeometry relative="1" as="geometry" />
        </mxCell>
        <mxCell id="qqJ8E_7XKEZBkvZXlv93-17" value="Alert Service" style="rounded=1;whiteSpace=wrap;html=1;" parent="1" vertex="1">
          <mxGeometry x="540" y="220" width="120" height="60" as="geometry" />
        </mxCell>
        <mxCell id="W4ulsms2s_xt8nWufjkG-58" style="edgeStyle=orthogonalEdgeStyle;rounded=0;orthogonalLoop=1;jettySize=auto;html=1;entryX=0.5;entryY=1;entryDx=0;entryDy=0;" parent="1" source="qqJ8E_7XKEZBkvZXlv93-20" target="qqJ8E_7XKEZBkvZXlv93-4" edge="1">
          <mxGeometry relative="1" as="geometry" />
        </mxCell>
        <mxCell id="W4ulsms2s_xt8nWufjkG-62" style="edgeStyle=orthogonalEdgeStyle;rounded=0;orthogonalLoop=1;jettySize=auto;html=1;entryX=0.5;entryY=1;entryDx=0;entryDy=0;" parent="1" source="qqJ8E_7XKEZBkvZXlv93-20" target="qqJ8E_7XKEZBkvZXlv93-38" edge="1">
          <mxGeometry relative="1" as="geometry">
            <Array as="points">
              <mxPoint x="715" y="710" />
              <mxPoint x="715" y="740" />
              <mxPoint x="870" y="740" />
            </Array>
          </mxGeometry>
        </mxCell>
        <mxCell id="W4ulsms2s_xt8nWufjkG-66" style="edgeStyle=orthogonalEdgeStyle;rounded=0;orthogonalLoop=1;jettySize=auto;html=1;entryX=0;entryY=0.5;entryDx=0;entryDy=0;" parent="1" source="qqJ8E_7XKEZBkvZXlv93-20" target="qqJ8E_7XKEZBkvZXlv93-15" edge="1">
          <mxGeometry relative="1" as="geometry">
            <Array as="points">
              <mxPoint x="685" y="680" />
              <mxPoint x="685" y="600" />
            </Array>
          </mxGeometry>
        </mxCell>
        <mxCell id="qqJ8E_7XKEZBkvZXlv93-20" value="Admin Service" style="rounded=1;whiteSpace=wrap;html=1;" parent="1" vertex="1">
          <mxGeometry x="500" y="660" width="120" height="60" as="geometry" />
        </mxCell>
        <mxCell id="qqJ8E_7XKEZBkvZXlv93-28" value="Admin DB" style="shape=cylinder3;whiteSpace=wrap;html=1;boundedLbl=1;backgroundOutline=1;size=15;" parent="1" vertex="1">
          <mxGeometry x="1260" y="550" width="60" height="80" as="geometry" />
        </mxCell>
        <mxCell id="W4ulsms2s_xt8nWufjkG-77" style="edgeStyle=orthogonalEdgeStyle;rounded=0;orthogonalLoop=1;jettySize=auto;html=1;entryX=1;entryY=0.5;entryDx=0;entryDy=0;" parent="1" source="qqJ8E_7XKEZBkvZXlv93-35" target="qqJ8E_7XKEZBkvZXlv93-38" edge="1">
          <mxGeometry relative="1" as="geometry" />
        </mxCell>
        <mxCell id="29" style="edgeStyle=orthogonalEdgeStyle;rounded=0;orthogonalLoop=1;jettySize=auto;html=1;entryX=1;entryY=0.5;entryDx=0;entryDy=0;" edge="1" parent="1" source="qqJ8E_7XKEZBkvZXlv93-35" target="24">
          <mxGeometry relative="1" as="geometry">
            <Array as="points">
              <mxPoint x="1040" y="500" />
            </Array>
          </mxGeometry>
        </mxCell>
        <mxCell id="qqJ8E_7XKEZBkvZXlv93-35" value="Redis" style="shape=cylinder3;whiteSpace=wrap;html=1;boundedLbl=1;backgroundOutline=1;size=15;" parent="1" vertex="1">
          <mxGeometry x="1010" y="650" width="60" height="80" as="geometry" />
        </mxCell>
        <mxCell id="W4ulsms2s_xt8nWufjkG-76" style="edgeStyle=orthogonalEdgeStyle;rounded=0;orthogonalLoop=1;jettySize=auto;html=1;" parent="1" source="qqJ8E_7XKEZBkvZXlv93-38" target="qqJ8E_7XKEZBkvZXlv93-35" edge="1">
          <mxGeometry relative="1" as="geometry" />
        </mxCell>
        <mxCell id="W4ulsms2s_xt8nWufjkG-89" style="edgeStyle=orthogonalEdgeStyle;rounded=0;orthogonalLoop=1;jettySize=auto;html=1;" parent="1" source="qqJ8E_7XKEZBkvZXlv93-38" target="qqJ8E_7XKEZBkvZXlv93-20" edge="1">
          <mxGeometry relative="1" as="geometry">
            <Array as="points">
              <mxPoint x="870" y="740" />
              <mxPoint x="715" y="740" />
              <mxPoint x="715" y="710" />
            </Array>
          </mxGeometry>
        </mxCell>
        <mxCell id="qqJ8E_7XKEZBkvZXlv93-38" value="Cache Service" style="rounded=1;whiteSpace=wrap;html=1;" parent="1" vertex="1">
          <mxGeometry x="810" y="660" width="120" height="60" as="geometry" />
        </mxCell>
        <mxCell id="W4ulsms2s_xt8nWufjkG-85" style="edgeStyle=orthogonalEdgeStyle;rounded=0;orthogonalLoop=1;jettySize=auto;html=1;entryX=0.25;entryY=1;entryDx=0;entryDy=0;" parent="1" source="zrGRH9ktJyJOCsm0qiEf-3" target="qqJ8E_7XKEZBkvZXlv93-4" edge="1">
          <mxGeometry relative="1" as="geometry" />
        </mxCell>
        <mxCell id="zrGRH9ktJyJOCsm0qiEf-3" value="&lt;div&gt;Service&lt;br&gt;Monitor&lt;/div&gt;&lt;div&gt;Service&lt;/div&gt;" style="rounded=1;whiteSpace=wrap;html=1;" parent="1" vertex="1">
          <mxGeometry x="220" y="790" width="120" height="60" as="geometry" />
        </mxCell>
        <mxCell id="20" style="edgeStyle=orthogonalEdgeStyle;rounded=0;orthogonalLoop=1;jettySize=auto;html=1;" edge="1" parent="1" source="W4ulsms2s_xt8nWufjkG-3" target="W4ulsms2s_xt8nWufjkG-12">
          <mxGeometry relative="1" as="geometry" />
        </mxCell>
        <mxCell id="W4ulsms2s_xt8nWufjkG-3" value="post event publisher" style="rounded=1;whiteSpace=wrap;html=1;" parent="1" vertex="1">
          <mxGeometry x="560" y="370" width="120" height="60" as="geometry" />
        </mxCell>
        <mxCell id="W4ulsms2s_xt8nWufjkG-56" style="edgeStyle=orthogonalEdgeStyle;rounded=0;orthogonalLoop=1;jettySize=auto;html=1;" parent="1" source="W4ulsms2s_xt8nWufjkG-12" target="qqJ8E_7XKEZBkvZXlv93-17" edge="1">
          <mxGeometry relative="1" as="geometry">
            <Array as="points">
              <mxPoint x="600" y="340" />
            </Array>
          </mxGeometry>
        </mxCell>
        <mxCell id="6" style="edgeStyle=orthogonalEdgeStyle;rounded=0;orthogonalLoop=1;jettySize=auto;html=1;" parent="1" source="W4ulsms2s_xt8nWufjkG-12" target="4" edge="1">
          <mxGeometry relative="1" as="geometry" />
        </mxCell>
        <mxCell id="7" style="edgeStyle=orthogonalEdgeStyle;rounded=0;orthogonalLoop=1;jettySize=auto;html=1;entryX=0;entryY=0.5;entryDx=0;entryDy=0;" parent="1" source="W4ulsms2s_xt8nWufjkG-12" target="3" edge="1">
          <mxGeometry relative="1" as="geometry" />
        </mxCell>
        <mxCell id="8" style="edgeStyle=orthogonalEdgeStyle;rounded=0;orthogonalLoop=1;jettySize=auto;html=1;entryX=0;entryY=0.5;entryDx=0;entryDy=0;" parent="1" source="W4ulsms2s_xt8nWufjkG-12" target="5" edge="1">
          <mxGeometry relative="1" as="geometry" />
        </mxCell>
        <mxCell id="W4ulsms2s_xt8nWufjkG-12" value="Kafka" style="shape=process;whiteSpace=wrap;html=1;backgroundOutline=1;" parent="1" vertex="1">
          <mxGeometry x="750" y="330" width="120" height="60" as="geometry" />
        </mxCell>
        <mxCell id="W4ulsms2s_xt8nWufjkG-82" style="edgeStyle=orthogonalEdgeStyle;rounded=0;orthogonalLoop=1;jettySize=auto;html=1;entryX=0.5;entryY=1;entryDx=0;entryDy=0;entryPerimeter=0;" parent="1" source="qqJ8E_7XKEZBkvZXlv93-20" target="qqJ8E_7XKEZBkvZXlv93-12" edge="1">
          <mxGeometry relative="1" as="geometry">
            <Array as="points">
              <mxPoint x="560" y="860" />
              <mxPoint x="1200" y="860" />
            </Array>
          </mxGeometry>
        </mxCell>
        <mxCell id="12" style="edgeStyle=orthogonalEdgeStyle;rounded=0;orthogonalLoop=1;jettySize=auto;html=1;entryX=1;entryY=0.5;entryDx=0;entryDy=0;" parent="1" source="3" target="qqJ8E_7XKEZBkvZXlv93-15" edge="1">
          <mxGeometry relative="1" as="geometry">
            <Array as="points">
              <mxPoint x="1180" y="370" />
              <mxPoint x="1180" y="600" />
            </Array>
          </mxGeometry>
        </mxCell>
        <mxCell id="3" value="post&lt;br&gt;consumer" style="rounded=1;whiteSpace=wrap;html=1;" parent="1" vertex="1">
          <mxGeometry x="980" y="340" width="120" height="60" as="geometry" />
        </mxCell>
        <mxCell id="13" style="edgeStyle=orthogonalEdgeStyle;rounded=0;orthogonalLoop=1;jettySize=auto;html=1;entryX=1;entryY=0.5;entryDx=0;entryDy=0;" parent="1" source="4" target="qqJ8E_7XKEZBkvZXlv93-15" edge="1">
          <mxGeometry relative="1" as="geometry">
            <Array as="points">
              <mxPoint x="1180" y="300" />
              <mxPoint x="1180" y="600" />
            </Array>
          </mxGeometry>
        </mxCell>
        <mxCell id="4" value="member&lt;br&gt;consumer" style="rounded=1;whiteSpace=wrap;html=1;" parent="1" vertex="1">
          <mxGeometry x="980" y="270" width="120" height="60" as="geometry" />
        </mxCell>
        <mxCell id="11" style="edgeStyle=orthogonalEdgeStyle;rounded=0;orthogonalLoop=1;jettySize=auto;html=1;entryX=1;entryY=0.5;entryDx=0;entryDy=0;" parent="1" source="5" target="qqJ8E_7XKEZBkvZXlv93-15" edge="1">
          <mxGeometry relative="1" as="geometry">
            <mxPoint x="1210" y="590" as="targetPoint" />
            <Array as="points">
              <mxPoint x="1180" y="440" />
              <mxPoint x="1180" y="600" />
            </Array>
          </mxGeometry>
        </mxCell>
        <mxCell id="23" style="edgeStyle=orthogonalEdgeStyle;rounded=0;orthogonalLoop=1;jettySize=auto;html=1;entryX=0.75;entryY=1;entryDx=0;entryDy=0;" edge="1" parent="1" source="5" target="W4ulsms2s_xt8nWufjkG-12">
          <mxGeometry relative="1" as="geometry">
            <Array as="points">
              <mxPoint x="840" y="470" />
            </Array>
          </mxGeometry>
        </mxCell>
        <mxCell id="5" value="reply&lt;br&gt;consumer" style="rounded=1;whiteSpace=wrap;html=1;" parent="1" vertex="1">
          <mxGeometry x="980" y="410" width="120" height="60" as="geometry" />
        </mxCell>
        <mxCell id="14" style="edgeStyle=orthogonalEdgeStyle;rounded=0;orthogonalLoop=1;jettySize=auto;html=1;entryX=0.5;entryY=0;entryDx=0;entryDy=0;entryPerimeter=0;" parent="1" source="5" target="qqJ8E_7XKEZBkvZXlv93-12" edge="1">
          <mxGeometry relative="1" as="geometry" />
        </mxCell>
        <mxCell id="15" style="edgeStyle=orthogonalEdgeStyle;rounded=0;orthogonalLoop=1;jettySize=auto;html=1;entryX=0.5;entryY=0;entryDx=0;entryDy=0;entryPerimeter=0;" parent="1" source="3" target="qqJ8E_7XKEZBkvZXlv93-12" edge="1">
          <mxGeometry relative="1" as="geometry" />
        </mxCell>
        <mxCell id="16" style="edgeStyle=orthogonalEdgeStyle;rounded=0;orthogonalLoop=1;jettySize=auto;html=1;entryX=0.5;entryY=0;entryDx=0;entryDy=0;entryPerimeter=0;" parent="1" source="4" target="qqJ8E_7XKEZBkvZXlv93-12" edge="1">
          <mxGeometry relative="1" as="geometry" />
        </mxCell>
        <mxCell id="26" style="edgeStyle=orthogonalEdgeStyle;rounded=0;orthogonalLoop=1;jettySize=auto;html=1;entryX=0.75;entryY=1;entryDx=0;entryDy=0;" edge="1" parent="1" source="24" target="qqJ8E_7XKEZBkvZXlv93-4">
          <mxGeometry relative="1" as="geometry" />
        </mxCell>
        <mxCell id="24" value="read data service" style="rounded=1;whiteSpace=wrap;html=1;" vertex="1" parent="1">
          <mxGeometry x="500" y="470" width="120" height="60" as="geometry" />
        </mxCell>
      </root>
    </mxGraphModel>
  </diagram>
</mxfile>
